<svg width="1440" height="820" viewBox="0 0 1440 820" fill="none" xmlns="http://www.w3.org/2000/svg">
<g clip-path="url(#clip0)">
<rect width="1440" height="820" fill="#7948DA"/>
<g filter="url(#filter0_d)">
<path d="M0 664C149.581 597.699 248.5 774.5 1440 664C2631.5 553.499 1440 821 1440 821H0L0 664Z" fill="#503881"/>
</g>
<path d="M0 593.5L148 579.25L639 635L1121.5 606.5L1456.25 579.25L1440 691.5C877.645 760.128 562.355 752.973 0 691.5V593.5Z" fill="#5B3E97"/>
<path d="M0 508L259.5 545.631L792 508L1239.5 534.178L1440 545.631V597.66L1045.5 622.856L652.5 633L19 608.458L0 597.66V508Z" fill="#6E44C1"/>
</g>
<defs>
<filter id="filter0_d" x="-4" y="637.245" width="1977.56" height="191.755" filterUnits="userSpaceOnUse" color-interpolation-filters="sRGB">
<feFlood flood-opacity="0" result="BackgroundImageFix"/>
<feColorMatrix in="SourceAlpha" type="matrix" values="0 0 0 0 0 0 0 0 0 0 0 0 0 0 0 0 0 0 127 0"/>
<feOffset dy="4"/>
<feGaussianBlur stdDeviation="2"/>
<feColorMatrix type="matrix" values="0 0 0 0 0 0 0 0 0 0 0 0 0 0 0 0 0 0 0.25 0"/>
<feBlend mode="normal" in2="BackgroundImageFix" result="effect1_dropShadow"/>
<feBlend mode="normal" in="SourceGraphic" in2="effect1_dropShadow" result="shape"/>
</filter>
<clipPath id="clip0">
<rect width="1440" height="820" fill="white"/>
</clipPath>
</defs>
</svg>
